<?xml version="1.0" encoding="utf-8"?>
<!-- Generator: Adobe Illustrator 27.5.0, SVG Export Plug-In . SVG Version: 6.00 Build 0)  -->
<svg version="1.1" id="Layer_1" xmlns="http://www.w3.org/2000/svg" xmlns:xlink="http://www.w3.org/1999/xlink" x="0px" y="0px"
	 viewBox="0 0 500 500" style="enable-background:new 0 0 500 500;" xml:space="preserve">
<rect style="fill:#FFFFFF;" width="500" height="500"/>
<g>
	<ellipse style="fill:#E6E6E6;" cx="250" cy="361.474" rx="210.725" ry="16.398"/>
	<g>
		<g>
			<g>
				<g>
					<path style="fill:#A6A6A6;" d="M330.495,174.503h-58.004c-3.611,0-6.539-2.928-6.539-6.539l0,0
						c0-3.611,2.928-6.539,6.539-6.539h58.004c3.611,0,6.539,2.927,6.539,6.539l0,0
						C337.034,171.576,334.106,174.503,330.495,174.503z"/>
				</g>
				<g>
					<path style="fill:#A6A6A6;" d="M329.332,132.102h-55.678c-2.754,0-4.987-2.233-4.987-4.987v0c0-2.754,2.233-4.987,4.987-4.987
						h55.678c2.754,0,4.987,2.233,4.987,4.987v0C334.318,129.869,332.086,132.102,329.332,132.102z"/>
				</g>
				<g>
					<path style="fill:#A6A6A6;" d="M288.924,129.171v44.496c0,2.168-1.757,3.925-3.925,3.925l0,0c-2.168,0-3.925-1.757-3.925-3.925
						v-44.496c0-2.168,1.757-3.925,3.925-3.925l0,0C287.167,125.245,288.924,127.003,288.924,129.171z"/>
				</g>
				<g>
					<path style="fill:#A6A6A6;" d="M324.527,129.171v44.496c0,2.168-1.758,3.925-3.925,3.925l0,0c-2.168,0-3.926-1.757-3.926-3.925
						v-44.496c0-2.168,1.758-3.925,3.926-3.925l0,0C322.77,125.245,324.527,127.003,324.527,129.171z"/>
				</g>
				<g>
					<g>
						
							<ellipse transform="matrix(0.973 -0.2308 0.2308 0.973 -72.801 71.6628)" style="fill:#686C73;" cx="269.877" cy="346.974" rx="10.801" ry="10.801"/>
					</g>
					<g>
						<circle style="fill:#E6E6E6;" cx="269.801" cy="346.974" r="6.369"/>
					</g>
				</g>
				<g>
					<g>
						
							<ellipse transform="matrix(0.973 -0.2308 0.2308 0.973 -70.9408 87.5636)" style="fill:#686C73;" cx="338.766" cy="346.974" rx="10.801" ry="10.801"/>
					</g>
					<g>
						<circle style="fill:#E6E6E6;" cx="338.689" cy="346.974" r="6.369"/>
					</g>
				</g>
				<g>
					<path style="fill:#FFEB7C;" d="M345.163,350.217h-79.489c-11.341,0-20.534-9.193-20.534-20.534v-140.73
						c0-11.341,9.194-20.534,20.534-20.534h79.489c11.341,0,20.534,9.193,20.534,20.534v140.73
						C365.697,341.024,356.504,350.217,345.163,350.217z"/>
				</g>
				<g>
					<path style="fill:#F2F2F2;" d="M345.163,168.419h-15.689c11.341,0,20.534,9.193,20.534,20.534v140.73
						c0,11.341-9.194,20.534-20.534,20.534h15.689c11.341,0,20.534-9.193,20.534-20.534v-140.73
						C365.697,177.612,356.504,168.419,345.163,168.419z"/>
				</g>
				<g>
					<path style="fill:#F2DF76;" d="M332.914,285.602h-66.641c-4.22,0-7.64,3.421-7.64,7.64v38.661c0,4.219,3.421,7.64,7.64,7.64
						h66.641c4.22,0,7.64-3.421,7.64-7.64v-38.661C340.554,289.023,337.133,285.602,332.914,285.602z"/>
				</g>
				<g>
					<path style="fill:#404040;" d="M333.564,249.286h-69.363c-2.83,0-5.125-2.294-5.125-5.125l0,0c0-2.83,2.294-5.124,5.125-5.124
						h69.363c2.83,0,5.125,2.294,5.125,5.124l0,0C338.689,246.992,336.395,249.286,333.564,249.286z"/>
				</g>
				<g>
					<path style="fill:#F2DF76;" d="M338.689,183.923h-77.085v27.433c0,10.011,8.115,18.126,18.126,18.126h40.833
						c10.011,0,18.126-8.115,18.126-18.126V183.923z"/>
				</g>
				<g>
					<path style="fill:#E3D16F;" d="M333.174,203.032h-70.045c-3.046,0-4.308-2.469-4.308-5.515v-13.594h79.868v13.594
						C338.689,200.563,336.22,203.032,333.174,203.032z"/>
				</g>
				<g>
					<path style="fill:#5D5D5D;" d="M338.689,185.317h-79.868c-0.77,0-1.394-0.624-1.394-1.394c0-0.77,0.624-1.394,1.394-1.394
						h79.868c0.771,0,1.395,0.624,1.395,1.394C340.084,184.693,339.46,185.317,338.689,185.317z"/>
				</g>
				<g>
					<path style="fill:#5D5D5D;" d="M335.209,286.996h-69.702c-0.77,0-1.394-0.624-1.394-1.395s0.624-1.395,1.394-1.395h69.702
						c0.77,0,1.395,0.624,1.395,1.395S335.979,286.996,335.209,286.996z"/>
				</g>
				<g>
					<path style="fill:#FFFFFF;" d="M265.677,195.187L265.677,195.187c-1.527,0-2.766-1.238-2.766-2.766v-6.336
						c0-1.527,1.238-2.766,2.766-2.766l0,0c1.527,0,2.766,1.238,2.766,2.766v6.336C268.443,193.949,267.205,195.187,265.677,195.187
						z"/>
				</g>
				<g>
					<path style="fill:#FFFFFF;" d="M270.428,297.017L270.428,297.017c-1.777,0-3.217-1.44-3.217-3.217v-7.37
						c0-1.777,1.44-3.217,3.217-3.217l0,0c1.777,0,3.217,1.44,3.217,3.217v7.37C273.645,295.577,272.205,297.017,270.428,297.017z"
						/>
				</g>
				<g>
					<rect x="281.073" y="132.102" style="fill:#E6E6E6;" width="7.851" height="4.678"/>
				</g>
				<g>
					<rect x="316.676" y="132.102" style="fill:#E6E6E6;" width="7.851" height="4.678"/>
				</g>
				<g>
					<rect x="281.073" y="156.747" style="fill:#E6E6E6;" width="7.851" height="4.678"/>
				</g>
				<g>
					<rect x="316.676" y="156.747" style="fill:#E6E6E6;" width="7.851" height="4.678"/>
				</g>
				<g>
					<path style="fill:#404040;" d="M330.748,165.82h-58.536c-0.972,0-1.76-0.788-1.76-1.76l0,0c0-0.972,0.788-1.76,1.76-1.76
						h58.536c0.972,0,1.76,0.788,1.76,1.76l0,0C332.508,165.032,331.72,165.82,330.748,165.82z"/>
				</g>
				<g>
					<path style="fill:#404040;" d="M326.448,130.635h-49.937c-0.972,0-1.76-0.788-1.76-1.76l0,0c0-0.972,0.788-1.76,1.76-1.76
						h49.937c0.972,0,1.76,0.788,1.76,1.76l0,0C328.209,129.847,327.421,130.635,326.448,130.635z"/>
				</g>
			</g>
			<g>
				<g>
					<g>
						<circle style="fill:#686C73;" cx="143.518" cy="347.592" r="10.183"/>
					</g>
					<g>
						<circle style="fill:#E6E6E6;" cx="143.446" cy="347.592" r="6.005"/>
					</g>
				</g>
				<g>
					<g>
						<circle style="fill:#686C73;" cx="211.655" cy="347.592" r="10.183"/>
					</g>
					<g>
						<circle style="fill:#E6E6E6;" cx="211.583" cy="347.592" r="6.005"/>
					</g>
				</g>
				<g>
					<path style="fill:#A6A6A6;" d="M208.064,166.956h-61.798c-3.08,0-5.577-2.497-5.577-5.577l0,0c0-3.08,2.497-5.577,5.577-5.577
						h61.798c3.08,0,5.577,2.497,5.577,5.577l0,0C213.641,164.459,211.144,166.956,208.064,166.956z"/>
				</g>
				<g>
					<path style="fill:#A6A6A6;" d="M160.482,160.398v42.624c0,2.048-1.66,3.708-3.708,3.708l0,0c-2.048,0-3.708-1.66-3.708-3.708
						v-42.624c0-2.048,1.66-3.708,3.708-3.708l0,0C158.822,156.69,160.482,158.35,160.482,160.398z"/>
				</g>
				<g>
					<path style="fill:#A6A6A6;" d="M204.142,160.398v42.624c0,2.048-1.66,3.708-3.708,3.708l0,0c-2.048,0-3.708-1.66-3.708-3.708
						v-42.624c0-2.048,1.66-3.708,3.708-3.708l0,0C202.482,156.69,204.142,158.35,204.142,160.398z"/>
				</g>
				<g>
					<g>
						<path style="fill:#A6A6A6;" d="M211.898,199.009h-69.467c-3.08,0-5.577-2.497-5.577-5.577l0,0c0-3.08,2.497-5.577,5.577-5.577
							h69.467c3.08,0,5.577,2.497,5.577,5.577l0,0C217.475,196.512,214.979,199.009,211.898,199.009z"/>
					</g>
					<g>
						<path style="fill:#666666;" d="M207.454,191.468h-62.396c-0.722,0-1.307-0.585-1.307-1.307l0,0
							c0-0.722,0.585-1.307,1.307-1.307h62.396c0.722,0,1.307,0.585,1.307,1.307l0,0
							C208.761,190.883,208.176,191.468,207.454,191.468z"/>
					</g>
				</g>
				<g>
					<path style="fill:#9B8579;" d="M226.228,346.778h-96.557c-4.086,0-7.398-3.312-7.398-7.398V204.1
						c0-4.086,3.312-7.398,7.398-7.398h96.557c4.086,0,7.398,3.312,7.398,7.398V339.38
						C233.626,343.466,230.314,346.778,226.228,346.778z"/>
				</g>
				<g>
					<path style="fill:#E6E6E6;" d="M217.475,346.778h-79.052v-52.86c0-9.759,7.911-17.67,17.67-17.67h43.713
						c9.759,0,17.67,7.911,17.67,17.67V346.778z"/>
				</g>
				<g>
					<path style="fill:#5D5D5D;" d="M217.475,295.313c-0.77,0-1.394-0.624-1.394-1.395c0-8.975-7.301-16.275-16.275-16.275h-43.713
						c-8.974,0-16.275,7.301-16.275,16.275c0,0.771-0.624,1.395-1.394,1.395c-0.77,0-1.394-0.624-1.394-1.395
						c0-10.512,8.552-19.065,19.064-19.065h43.713c10.512,0,19.064,8.552,19.064,19.065
						C218.869,294.689,218.245,295.313,217.475,295.313z"/>
				</g>
				<g>
					<rect x="138.423" y="321.1" style="fill:#7A6960;" width="79.052" height="5.635"/>
				</g>
				<g>
					<path style="fill:#D9D9D9;" d="M227.236,196.779v149.923c3.608-0.493,6.391-3.578,6.391-7.322V204.1
						C233.626,200.357,230.844,197.271,227.236,196.779z"/>
				</g>
				<g>
					<path style="fill:#D9D9D9;" d="M128.663,196.779v149.923c-3.608-0.493-6.391-3.578-6.391-7.322V204.1
						C122.272,200.357,125.055,197.271,128.663,196.779z"/>
				</g>
				<g>
					<path style="fill:#E6E6E6;" d="M207.396,245.573h-58.893c-8.07,0-14.611-6.542-14.611-14.611v-34.26h88.115v34.26
						C222.007,239.032,215.465,245.573,207.396,245.573z"/>
				</g>
				<g>
					<path style="fill:#FFE673;" d="M138.423,301.472L138.423,301.472c-0.867,0-1.569-0.702-1.569-1.569v-7.232
						c0-0.866,0.702-1.569,1.569-1.569l0,0c0.867,0,1.569,0.702,1.569,1.569v7.232C139.992,300.77,139.29,301.472,138.423,301.472z"
						/>
				</g>
				<g>
					<path style="fill:#B3B3B3;" d="M215.096,270.38h-21.908c-1.314,0-2.379-1.065-2.379-2.379v-1.515
						c0-1.314,1.065-2.379,2.379-2.379h21.908c1.314,0,2.379,1.065,2.379,2.379V268C217.475,269.314,216.41,270.38,215.096,270.38z"
						/>
				</g>
				<g>
					<path style="fill:#666666;" d="M206.147,162.146h-59.782c-1.444,0-2.614-1.171-2.614-2.614l0,0
						c0-1.444,1.171-2.614,2.614-2.614h59.782c1.444,0,2.614,1.171,2.614,2.614l0,0C208.761,160.976,207.59,162.146,206.147,162.146
						z"/>
				</g>
				<g>
					<rect x="153.067" y="166.956" style="fill:#D9D9D9;" width="7.415" height="4.34"/>
				</g>
				<g>
					<rect x="196.727" y="166.956" style="fill:#D9D9D9;" width="7.415" height="4.34"/>
				</g>
				<g>
					<path style="fill:#7A6760;" d="M204.792,235.008h-53.684c-5.321,0-9.634-4.313-9.634-9.634v-27.624
						c0-2.386,1.934-4.319,4.32-4.319h64.314c2.385,0,4.319,1.934,4.319,4.319v27.624
						C214.426,230.695,210.112,235.008,204.792,235.008z"/>
				</g>
			</g>
			<g>
				<g>
					<g>
						<g>
							<circle style="fill:#9298A1;" cx="282.539" cy="355.223" r="8.814"/>
						</g>
						<g>
							<circle style="fill:#E6E6E6;" cx="282.477" cy="355.223" r="5.198"/>
						</g>
					</g>
					<g>
						<path style="fill:#DAECF6;" d="M286.17,354.853l0.073-10.202c0.015-2.025-1.615-3.678-3.641-3.693l0,0
							c-2.025-0.014-3.678,1.615-3.693,3.641l-0.073,10.202c-0.014,2.025,1.615,3.678,3.641,3.693l0,0
							C284.502,358.509,286.155,356.879,286.17,354.853z"/>
					</g>
					<g>
						<path style="fill:#E6E6E6;" d="M282.477,356.485L282.477,356.485c0.691,0,1.252-0.56,1.252-1.252v-0.02
							c0-0.691-0.561-1.252-1.252-1.252l0,0c-0.691,0-1.252,0.56-1.252,1.252v0.02C281.225,355.924,281.786,356.485,282.477,356.485
							z"/>
					</g>
				</g>
				<g>
					<g>
						<circle style="fill:#9298A1;" cx="227.184" cy="355.223" r="8.814"/>
					</g>
					<g>
						<circle style="fill:#E6E6E6;" cx="227.121" cy="355.223" r="5.198"/>
					</g>
					<g>
						<path style="fill:#DAECF6;" d="M230.814,354.853l0.073-10.202c0.014-2.025-1.615-3.678-3.641-3.693l0,0
							c-2.025-0.014-3.678,1.615-3.693,3.641l-0.073,10.202c-0.014,2.025,1.616,3.678,3.641,3.693h0
							C229.146,358.509,230.8,356.879,230.814,354.853z"/>
					</g>
					<g>
						<path style="fill:#E6E6E6;" d="M227.121,356.485L227.121,356.485c0.691,0,1.252-0.56,1.252-1.252v-0.02
							c0-0.691-0.56-1.252-1.252-1.252l0,0c-0.691,0-1.252,0.56-1.252,1.252v0.02C225.87,355.924,226.43,356.485,227.121,356.485z"
							/>
					</g>
				</g>
				<g>
					<g>
						<rect x="233.181" y="208.121" style="fill:#A6A6A6;" width="5.79" height="20.681"/>
					</g>
					<g>
						<rect x="270.049" y="208.121" style="fill:#A6A6A6;" width="5.79" height="20.681"/>
					</g>
				</g>
				<g>
					<path style="fill:#A6A6A6;" d="M277.604,235.348h-46.187c-2.642,0-4.783-2.142-4.783-4.783v0c0-2.642,2.142-4.783,4.783-4.783
						h46.187c2.642,0,4.783,2.142,4.783,4.783v0C282.388,233.206,280.246,235.348,277.604,235.348z"/>
				</g>
				<g>
					<path style="fill:#A6A6A6;" d="M280.273,215.703h-51.526c-2.178,0-3.944-1.766-3.944-3.944l0,0
						c0-2.178,1.766-3.944,3.944-3.944h51.526c2.178,0,3.944,1.766,3.944,3.944l0,0
						C284.218,213.937,282.452,215.703,280.273,215.703z"/>
				</g>
				<g>
					<path style="fill:#A02042;" d="M276.665,356.022h-44.309c-14.089,0-25.511-11.422-25.511-25.511v-76.198
						c0-14.089,11.422-25.511,25.511-25.511h44.309c14.089,0,25.511,11.422,25.511,25.511v76.198
						C302.176,344.601,290.754,356.022,276.665,356.022z"/>
				</g>
				<g>
					<path style="fill:#1A1A1A;" d="M278.226,351.633h-46.98c-7.875,0-14.259-6.384-14.259-14.259v-79.542
						c0-7.875,6.384-14.259,14.259-14.259h46.98c7.875,0,14.259,6.384,14.259,14.259v79.542
						C292.486,345.249,286.101,351.633,278.226,351.633z"/>
				</g>
				<g>
					<path style="fill:#5D5D5D;" d="M292.486,259.038c-0.666,0-1.207-0.541-1.207-1.207c0-7.196-5.855-13.052-13.053-13.052h-46.98
						c-7.197,0-13.052,5.855-13.052,13.052c0,0.666-0.541,1.207-1.207,1.207c-0.666,0-1.207-0.541-1.207-1.207
						c0-8.528,6.938-15.465,15.466-15.465h46.98c8.528,0,15.466,6.937,15.466,15.465
						C293.692,258.497,293.152,259.038,292.486,259.038z"/>
				</g>
				<g>
					<path style="fill:#1A1A1A;" d="M275.863,349.001H233.61c-4.299,0-7.785-3.485-7.785-7.785v-28.964
						c0-4.299,3.485-7.785,7.785-7.785h42.253c4.299,0,7.784,3.485,7.784,7.785v28.964
						C283.647,345.516,280.162,349.001,275.863,349.001z"/>
				</g>
				<g>
					<path style="fill:#1A1A1A;" d="M269.265,345.668h-29.057c-2.957,0-5.353-2.397-5.353-5.353v-19.918
						c0-2.957,2.397-5.353,5.353-5.353h29.057c2.957,0,5.353,2.397,5.353,5.353v19.918
						C274.618,343.271,272.221,345.668,269.265,345.668z"/>
				</g>
				<g>
					<path style="fill:#5D5D5D;" d="M280.917,282.426h-52.365c-0.896,0-1.622-0.726-1.622-1.622l0,0
						c0-0.896,0.726-1.622,1.622-1.622h52.365c0.896,0,1.622,0.726,1.622,1.622l0,0C282.539,281.7,281.813,282.426,280.917,282.426z
						"/>
				</g>
				<g>
					<path style="fill:#FFE673;" d="M229.153,292.412L229.153,292.412c-1.228,0-2.224-0.996-2.224-2.224v-9.539
						c0-1.228,0.996-2.224,2.224-2.224l0,0c1.228,0,2.224,0.996,2.224,2.224v9.539C231.377,291.417,230.382,292.412,229.153,292.412
						z"/>
				</g>
				<g>
					<path style="fill:#404040;" d="M279.814,262.642h-15.496c-1.421,0-2.573-1.152-2.573-2.573l0,0
						c0-1.421,1.152-2.573,2.573-2.573h15.496c1.421,0,2.574,1.152,2.574,2.573l0,0C282.388,261.49,281.235,262.642,279.814,262.642
						z"/>
				</g>
				<g>
					<rect x="233.181" y="215.703" style="fill:#E6E6E6;" width="5.79" height="3.126"/>
				</g>
				<g>
					<rect x="270.049" y="215.703" style="fill:#E6E6E6;" width="5.79" height="3.126"/>
				</g>
				<g>
					<path style="fill:#404040;" d="M273.107,310.511h-36.742c-0.834,0-1.511-0.676-1.511-1.51l0,0c0-0.834,0.676-1.511,1.511-1.511
						h36.742c0.834,0,1.51,0.676,1.51,1.511l0,0C274.618,309.835,273.942,310.511,273.107,310.511z"/>
				</g>
				<g>
					<path style="fill:#A02042;" d="M276.284,211.156h-43.546c-1.422,0-2.575-1.153-2.575-2.575l0,0
						c0-1.422,1.153-2.575,2.575-2.575h43.546c1.422,0,2.575,1.153,2.575,2.575l0,0
						C278.859,210.003,277.706,211.156,276.284,211.156z"/>
				</g>
			</g>
		</g>
		<g>
			<g>
				<path style="fill:#BFBFBF;" d="M400.773,282.816h-6.093v-11.298c0-1.813-2.075-3.344-4.529-3.344h-24.317
					c-2.455,0-4.53,1.531-4.53,3.344v11.298h-6.093v-11.298c0-5.204,4.765-9.437,10.623-9.437h24.317
					c5.857,0,10.622,4.233,10.622,9.437V282.816z"/>
			</g>
			<g>
				<path style="fill:#99603F;" d="M326.245,279.233h110.531c4.083,0,7.392,3.31,7.392,7.392v67.848c0,4.083-3.31,7.392-7.392,7.392
					H326.245c-4.083,0-7.392-3.31-7.392-7.392v-67.848C318.853,282.542,322.162,279.233,326.245,279.233z"/>
			</g>
			<g>
				<path style="fill:#D4D4D4;" d="M436.775,279.233h-10.502c4.083,0,7.392,3.31,7.392,7.392v67.848c0,4.083-3.31,7.392-7.392,7.392
					h10.502c4.083,0,7.392-3.31,7.392-7.392v-67.848C444.168,282.542,440.858,279.233,436.775,279.233z"/>
			</g>
			<g>
				<path style="fill:#825135;" d="M348.064,363.936h-5.374c-0.898,0-1.625-0.728-1.625-1.625v-83.214
					c0-0.898,0.728-1.625,1.625-1.625h5.374c0.898,0,1.625,0.728,1.625,1.625v83.214
					C349.69,363.208,348.962,363.936,348.064,363.936z"/>
			</g>
			<g>
				<path style="fill:#825135;" d="M412.366,363.936h-6.934c-0.992,0-1.796-0.804-1.796-1.796v-82.874
					c0-0.992,0.804-1.796,1.796-1.796h6.934c0.992,0,1.796,0.804,1.796,1.796v82.874
					C414.161,363.132,413.357,363.936,412.366,363.936z"/>
			</g>
			<g>
				<path style="fill:#0D0D0D;" d="M325.227,356.966L325.227,356.966c-2.027,0-3.67-1.643-3.67-3.67v-65.368
					c0-2.027,1.643-3.67,3.67-3.67l0,0c2.027,0,3.67,1.643,3.67,3.67v65.368C328.897,355.322,327.254,356.966,325.227,356.966z"/>
			</g>
			<g>
				<path style="fill:#99603F;" d="M389.034,269.624h-21.945c-2.575,0-4.662-2.088-4.662-4.663l0,0c0-2.575,2.087-4.663,4.662-4.663
					h21.945c2.575,0,4.663,2.087,4.663,4.663l0,0C393.696,267.536,391.609,269.624,389.034,269.624z"/>
			</g>
			<g>
				<path style="fill:#262626;" d="M379.479,265.129h-12.464c-1.122,0-2.031-0.909-2.031-2.031l0,0c0-1.122,0.909-2.031,2.031-2.031
					h12.464c1.122,0,2.031,0.909,2.031,2.031l0,0C381.51,264.22,380.601,265.129,379.479,265.129z"/>
			</g>
			<g>
				<path style="fill:#0D0D0D;" d="M342.219,332.21L342.219,332.21c-1.191,0-2.156-0.965-2.156-2.156v-6.029
					c0-1.191,0.965-2.156,2.156-2.156l0,0c1.191,0,2.156,0.965,2.156,2.156v6.029C344.375,331.245,343.41,332.21,342.219,332.21z"/>
			</g>
			<g>
				<g>
					<g>
						<path style="fill:#995E3E;" d="M348.347,342.296l-2.091,3.029c-0.425,0.615-1.336,0.618-1.765,0.005l-2.08-2.973
							c-0.125-0.179-0.192-0.392-0.192-0.61v-7.112h6.317v7.057C348.536,341.907,348.47,342.118,348.347,342.296z"/>
					</g>
					<g>
						<path style="fill:#995E3E;" d="M347.824,277.472h-4.893c-0.393,0-0.712,0.319-0.712,0.712v59.686
							c0,0.393,0.319,0.712,0.712,0.712h4.893c0.393,0,0.712-0.319,0.712-0.712v-59.686
							C348.536,277.79,348.217,277.472,347.824,277.472z"/>
					</g>
					<g>
						<path style="fill:#70462E;" d="M349.69,336.429h-8.863c-1.275,0-2.309-1.034-2.309-2.309v-11.263
							c0-1.275,1.034-2.309,2.309-2.309h8.863c1.275,0,2.309,1.034,2.309,2.309v11.263
							C351.998,335.396,350.965,336.429,349.69,336.429z"/>
					</g>
				</g>
				<g>
					<g>
						<path style="fill:#262626;" d="M345.278,285.077L345.278,285.077c-0.499,0-0.903-0.404-0.903-0.903v-4.038
							c0-0.499,0.404-0.903,0.903-0.903l0,0c0.499,0,0.903,0.404,0.903,0.903v4.038
							C346.182,284.673,345.777,285.077,345.278,285.077z"/>
					</g>
					<g>
						<path style="fill:#262626;" d="M345.278,292.971L345.278,292.971c-0.499,0-0.903-0.404-0.903-0.903v-4.038
							c0-0.499,0.404-0.903,0.903-0.903l0,0c0.499,0,0.903,0.404,0.903,0.903v4.038
							C346.182,292.567,345.777,292.971,345.278,292.971z"/>
					</g>
					<g>
						<path style="fill:#262626;" d="M345.278,300.934L345.278,300.934c-0.499,0-0.903-0.404-0.903-0.903v-4.038
							c0-0.499,0.404-0.903,0.903-0.903l0,0c0.499,0,0.903,0.404,0.903,0.903v4.038C346.182,300.53,345.777,300.934,345.278,300.934
							z"/>
					</g>
					<g>
						<path style="fill:#262626;" d="M345.278,308.828L345.278,308.828c-0.499,0-0.903-0.404-0.903-0.903v-4.038
							c0-0.499,0.404-0.903,0.903-0.903l0,0c0.499,0,0.903,0.404,0.903,0.903v4.038
							C346.182,308.424,345.777,308.828,345.278,308.828z"/>
					</g>
					<g>
						<path style="fill:#262626;" d="M345.278,318.107L345.278,318.107c-0.499,0-0.903-0.404-0.903-0.903v-4.038
							c0-0.499,0.404-0.903,0.903-0.903l0,0c0.499,0,0.903,0.404,0.903,0.903v4.038
							C346.182,317.703,345.777,318.107,345.278,318.107z"/>
					</g>
				</g>
			</g>
			<g>
				<g>
					<g>
						<path style="fill:#995E3E;" d="M411.988,342.296l-2.091,3.029c-0.425,0.615-1.336,0.618-1.765,0.005l-2.08-2.973
							c-0.125-0.179-0.192-0.392-0.192-0.61v-7.112h6.317v7.057C412.176,341.907,412.111,342.118,411.988,342.296z"/>
					</g>
					<g>
						<path style="fill:#995E3E;" d="M411.464,277.472h-4.893c-0.393,0-0.712,0.319-0.712,0.712v59.686
							c0,0.393,0.319,0.712,0.712,0.712h4.893c0.393,0,0.712-0.319,0.712-0.712v-59.686
							C412.176,277.79,411.858,277.472,411.464,277.472z"/>
					</g>
					<g>
						<path style="fill:#70462E;" d="M413.33,336.429h-8.863c-1.275,0-2.309-1.034-2.309-2.309v-11.263
							c0-1.275,1.034-2.309,2.309-2.309h8.863c1.275,0,2.309,1.034,2.309,2.309v11.263
							C415.639,335.396,414.605,336.429,413.33,336.429z"/>
					</g>
				</g>
				<g>
					<g>
						<path style="fill:#262626;" d="M408.919,285.077L408.919,285.077c-0.499,0-0.903-0.404-0.903-0.903v-4.038
							c0-0.499,0.404-0.903,0.903-0.903l0,0c0.499,0,0.903,0.404,0.903,0.903v4.038
							C409.822,284.673,409.418,285.077,408.919,285.077z"/>
					</g>
					<g>
						<path style="fill:#262626;" d="M408.919,292.971L408.919,292.971c-0.499,0-0.903-0.404-0.903-0.903v-4.038
							c0-0.499,0.404-0.903,0.903-0.903l0,0c0.499,0,0.903,0.404,0.903,0.903v4.038
							C409.822,292.567,409.418,292.971,408.919,292.971z"/>
					</g>
					<g>
						<path style="fill:#262626;" d="M408.919,300.934L408.919,300.934c-0.499,0-0.903-0.404-0.903-0.903v-4.038
							c0-0.499,0.404-0.903,0.903-0.903l0,0c0.499,0,0.903,0.404,0.903,0.903v4.038C409.822,300.53,409.418,300.934,408.919,300.934
							z"/>
					</g>
					<g>
						<path style="fill:#262626;" d="M408.919,308.828L408.919,308.828c-0.499,0-0.903-0.404-0.903-0.903v-4.038
							c0-0.499,0.404-0.903,0.903-0.903l0,0c0.499,0,0.903,0.404,0.903,0.903v4.038
							C409.822,308.424,409.418,308.828,408.919,308.828z"/>
					</g>
					<g>
						<path style="fill:#262626;" d="M408.919,318.107L408.919,318.107c-0.499,0-0.903-0.404-0.903-0.903v-4.038
							c0-0.499,0.404-0.903,0.903-0.903l0,0c0.499,0,0.903,0.404,0.903,0.903v4.038
							C409.822,317.703,409.418,318.107,408.919,318.107z"/>
					</g>
				</g>
			</g>
		</g>
		<g>
			<g>
				<path style="fill:#999999;" d="M118.527,310.52h-4.122v-6.995c0-3.082-2.508-5.59-5.59-5.59H94.303
					c-3.082,0-5.59,2.508-5.59,5.59v6.995h-4.122v-6.995c0-5.355,4.356-9.712,9.712-9.712h14.512c5.355,0,9.712,4.357,9.712,9.712
					V310.52z"/>
			</g>
			<g>
				<path style="fill:#FF8E52;" d="M109.97,307.869H93.148c-15.39,0-27.867,12.476-27.867,27.866v16.593
					c0,3.007,2.438,5.445,5.446,5.445h61.664c3.007,0,5.445-2.438,5.445-5.445v-16.593
					C137.837,320.345,125.36,307.869,109.97,307.869z"/>
			</g>
			<g>
				<path style="fill:#262626;" d="M109.418,325.734H93.701c-9.63,0-17.437,7.807-17.437,17.437v9.52h50.591v-9.52
					C126.855,333.541,119.048,325.734,109.418,325.734z"/>
			</g>
			<g>
				<path style="fill:#D6D6D6;" d="M81.805,331.086c-0.178,0-0.356-0.07-0.487-0.211c-0.251-0.268-0.235-0.69,0.033-0.941
					c3.363-3.137,7.748-4.865,12.35-4.865h15.717c4.522,0,8.851,1.675,12.189,4.719c0.271,0.248,0.291,0.668,0.043,0.94
					c-0.249,0.271-0.67,0.291-0.94,0.043c-3.092-2.818-7.103-4.372-11.292-4.372H93.701c-4.263,0-8.326,1.601-11.441,4.509
					C82.131,331.027,81.968,331.086,81.805,331.086z"/>
			</g>
			<g>
				<path style="fill:#262626;" d="M107.206,333.322H95.913c-6.92,0-12.529,5.609-12.529,12.529v6.84h36.351v-6.84
					C119.735,338.931,114.125,333.322,107.206,333.322z"/>
			</g>
			<g>
				<path style="fill:#D6D6D6;" d="M119.735,346.516c-0.368,0-0.665-0.297-0.665-0.665c0-6.542-5.322-11.865-11.863-11.865H95.913
					c-6.542,0-11.865,5.322-11.865,11.865c0,0.368-0.298,0.665-0.665,0.665c-0.368,0-0.665-0.297-0.665-0.665
					c0-7.276,5.919-13.195,13.195-13.195h11.293c7.275,0,13.194,5.919,13.194,13.195C120.4,346.219,120.103,346.516,119.735,346.516
					z"/>
			</g>
			<g>
				<g>
					<path style="fill:#DE7C47;" d="M86.149,317.494L86.149,317.494c-2.267,0-4.105-1.838-4.105-4.105v-4.66
						c0-2.267,1.838-4.105,4.105-4.105l0,0c2.267,0,4.105,1.838,4.105,4.105v4.66C90.254,315.657,88.416,317.494,86.149,317.494z"/>
				</g>
				<g>
					<path style="fill:#DE7C47;" d="M116.796,317.494L116.796,317.494c-2.267,0-4.105-1.838-4.105-4.105v-4.66
						c0-2.267,1.838-4.105,4.105-4.105l0,0c2.267,0,4.105,1.838,4.105,4.105v4.66C120.901,315.657,119.063,317.494,116.796,317.494z
						"/>
				</g>
			</g>
			<g>
				<path style="fill:#E6E6E6;" d="M65.3,352.691c0.187,2.838,2.542,5.083,5.427,5.083h61.664c2.885,0,5.24-2.246,5.427-5.083H65.3z
					"/>
			</g>
			<g>
				<path style="fill:#FFE673;" d="M82.044,334.089L82.044,334.089c-0.661,0-1.197-0.536-1.197-1.197v-2.47
					c0-0.661,0.536-1.197,1.197-1.197l0,0c0.661,0,1.197,0.536,1.197,1.197v2.47C83.241,333.553,82.705,334.089,82.044,334.089z"/>
			</g>
			<g>
				<path style="fill:#FFE673;" d="M83.384,348.882L83.384,348.882c-0.661,0-1.197-0.536-1.197-1.197v-2.47
					c0-0.661,0.536-1.197,1.197-1.197l0,0c0.661,0,1.197,0.536,1.197,1.197v2.47C84.581,348.346,84.045,348.882,83.384,348.882z"/>
			</g>
			<g>
				<path style="fill:#262626;" d="M84.267,315.358L84.267,315.358c-0.888,0-1.609-0.72-1.609-1.609v-5.159
					c0-0.888,0.72-1.609,1.609-1.609l0,0c0.889,0,1.609,0.72,1.609,1.609v5.159C85.876,314.638,85.156,315.358,84.267,315.358z"/>
			</g>
			<g>
				<path style="fill:#262626;" d="M114.857,315.358L114.857,315.358c-0.888,0-1.609-0.72-1.609-1.609v-5.159
					c0-0.888,0.72-1.609,1.609-1.609l0,0c0.888,0,1.609,0.72,1.609,1.609v5.159C116.466,314.638,115.746,315.358,114.857,315.358z"
					/>
			</g>
			<g>
				<path style="fill:#666666;" d="M109.222,297.329H93.568c-0.797,0-1.442-0.646-1.442-1.442l0,0c0-0.797,0.646-1.442,1.442-1.442
					h15.654c0.797,0,1.442,0.646,1.442,1.442l0,0C110.665,296.684,110.019,297.329,109.222,297.329z"/>
			</g>
		</g>
	</g>
</g>
</svg>
